# xmcd
#
# Track frame offsets: 
#        150
#        12776
#        24882
#        38317
#        51343
#        67602
#        93485
#        106025
#        120636
#        133442
#        145965
#        157200
#        168399
#        181042
#
# Disc length: 2584 seconds
#
# Revision: 4
# Processed by: cddbd v1.5.2PL0 Copyright (c) Steve Scherf et al.
# Submitted via: ExactAudioCopy v1.1
#
DISCID=ac0a160e
DTITLE=Otis Clay - The Complete Otis Clay on Hi Records
DYEAR=2000
DGENRE=Soul
TTITLE0=Trying To Live My Life Without You
TTITLE1=I Die A Little Each Day
TTITLE2=Holding On To A Dying Love
TTITLE3=I Can't Make It Alone
TTITLE4=That's How It Is (When You're In Love)
TTITLE5=I Love You, I Need You
TTITLE6=You Can't Keep Running From My Love
TTITLE7=Precious, Precious
TTITLE8=Home Is Where The Heart Is
TTITLE9=Too Many Hands
TTITLE10=Brand New Thing (mono)
TTITLE11=Let Me Be The One (mono)
TTITLE12=I Didn't Know The Meaning Of Pain (mono)
TTITLE13=If I Could Reach Out (mono)
EXTD=YEAR: 2000
EXTT0=
EXTT1=
EXTT2=
EXTT3=
EXTT4=
EXTT5=
EXTT6=
EXTT7=
EXTT8=
EXTT9=
EXTT10=
EXTT11=
EXTT12=
EXTT13=
PLAYORDER=
